<svg width="49" height="48" viewBox="0 0 49 48" fill="none" xmlns="http://www.w3.org/2000/svg">
<g clip-path="url(#clip0_728_261400)">
<path d="M23.1764 1.92549C23.425 1.42201 23.9377 1.10327 24.4992 1.10327C25.0607 1.10317 25.5735 1.42191 25.8221 1.92539L31.5758 13.582C32.1169 14.6781 33.1626 15.438 34.3723 15.6136L47.2368 17.4837C47.7925 17.5646 48.2541 17.9537 48.4277 18.4878C48.6011 19.0217 48.4565 19.608 48.0544 19.9999L38.7463 29.0743C37.8711 29.9277 37.4717 31.157 37.6781 32.3616L39.8744 45.1723C39.9693 45.7257 39.7418 46.285 39.2875 46.6147C38.8333 46.9449 38.2311 46.9883 37.7341 46.727L26.2276 40.6788C25.1456 40.1101 23.8531 40.1101 22.7709 40.679L11.2654 46.7269C10.7684 46.9882 10.1662 46.9445 9.71196 46.6145C9.25766 46.2845 9.03027 45.7251 9.12512 45.1719L11.3224 32.3622C11.5292 31.1572 11.1297 29.9277 10.2542 29.0741L0.945514 20C0.543511 19.6081 0.3987 19.0218 0.572239 18.4879C0.745779 17.9539 1.20738 17.5647 1.76306 17.4838L14.6271 15.6138C15.8369 15.438 16.8827 14.6782 17.4237 13.5819L23.1764 1.92549Z" fill="white"/>
</g>
<defs>
<clipPath id="clip0_728_261400">
<rect width="48" height="48" fill="white" transform="translate(0.5)"/>
</clipPath>
</defs>
</svg>
