<svg width="56" height="57" viewBox="0 0 56 57" fill="none" xmlns="http://www.w3.org/2000/svg">
<path fill-rule="evenodd" clip-rule="evenodd" d="M18.1703 5.66635C16.6732 5.2172 15.1665 6.33825 15.1665 7.90126V51.8332H23.3332V43.6666C23.3332 42.3779 24.3778 41.3332 25.6665 41.3332H30.3332C31.6219 41.3332 32.6665 42.3779 32.6665 43.6666V51.8332H40.8332V14.2013C40.8332 13.1708 40.1572 12.2624 39.1702 11.9663L18.1703 5.66635ZM23.3332 19.1666C22.6888 19.1666 22.1665 19.6889 22.1665 20.3332V22.6666C22.1665 23.3109 22.6888 23.8332 23.3332 23.8332H25.6665C26.3107 23.8332 26.8332 23.3109 26.8332 22.6666V20.3332C26.8332 19.6889 26.3107 19.1666 25.6665 19.1666H23.3332ZM22.1665 27.3332C22.1665 26.689 22.6888 26.1666 23.3332 26.1666H25.6665C26.3107 26.1666 26.8332 26.689 26.8332 27.3332V29.6666C26.8332 30.3108 26.3107 30.8332 25.6665 30.8332H23.3332C22.6888 30.8332 22.1665 30.3108 22.1665 29.6666V27.3332ZM23.3332 33.1666C22.6888 33.1666 22.1665 33.689 22.1665 34.3332V36.6666C22.1665 37.3108 22.6888 37.8332 23.3332 37.8332H25.6665C26.3107 37.8332 26.8332 37.3108 26.8332 36.6666V34.3332C26.8332 33.689 26.3107 33.1666 25.6665 33.1666H23.3332ZM29.1665 20.3332C29.1665 19.6889 29.6889 19.1666 30.3332 19.1666H32.6665C33.3107 19.1666 33.8332 19.6889 33.8332 20.3332V22.6666C33.8332 23.3109 33.3107 23.8332 32.6665 23.8332H30.3332C29.6889 23.8332 29.1665 23.3109 29.1665 22.6666V20.3332ZM30.3332 26.1666C29.6889 26.1666 29.1665 26.689 29.1665 27.3332V29.6666C29.1665 30.3108 29.6889 30.8332 30.3332 30.8332H32.6665C33.3107 30.8332 33.8332 30.3108 33.8332 29.6666V27.3332C33.8332 26.689 33.3107 26.1666 32.6665 26.1666H30.3332ZM29.1665 34.3332C29.1665 33.689 29.6889 33.1666 30.3332 33.1666H32.6665C33.3107 33.1666 33.8332 33.689 33.8332 34.3332V36.6666C33.8332 37.3108 33.3107 37.8332 32.6665 37.8332H30.3332C29.6889 37.8332 29.1665 37.3108 29.1665 36.6666V34.3332Z" fill="white"/>
<path d="M12.8332 51.8332V12.1665H9.33317C8.04452 12.1665 6.99984 13.2112 6.99984 14.4998V49.4998H5.83317C5.18884 49.4998 4.6665 50.0223 4.6665 50.6665C4.6665 51.3107 5.18884 51.8332 5.83317 51.8332H12.8332Z" fill="white"/>
<path d="M50.1665 51.8332H43.1665V20.9895L47.8241 23.651C48.5511 24.0666 48.9998 24.8396 48.9998 25.677V49.4999H50.1665C50.8107 49.4999 51.3332 50.0223 51.3332 50.6666C51.3332 51.3108 50.8107 51.8332 50.1665 51.8332Z" fill="white"/>
<path d="M30.3332 51.8333V43.6666H25.6665V51.8333H30.3332Z" fill="white"/>
</svg>
