<svg width="61" height="60" viewBox="0 0 61 60" fill="none" xmlns="http://www.w3.org/2000/svg">
<path d="M59.5349 32.1843C59.6276 34.3995 58.8378 36.561 57.3389 38.1947C55.8399 39.8283 53.7541 40.8006 51.5392 40.8984C51.4096 40.9044 51.2803 40.9074 51.1513 40.9074C50.5628 40.907 49.976 40.8433 49.4011 40.7174C47.6953 43.3512 45.4585 45.5999 42.8339 47.3198C40.2093 49.0396 37.2546 50.1927 34.1589 50.7053C33.7927 51.781 33.0622 52.695 32.0936 53.2893C31.1251 53.8835 29.9793 54.1207 28.8545 53.9598C27.7296 53.7989 26.6963 53.25 25.9332 52.408C25.1701 51.5661 24.7251 50.484 24.6752 49.3488C24.6253 48.2135 24.9736 47.0965 25.6599 46.1909C26.3462 45.2852 27.3273 44.6478 28.4337 44.3888C29.5401 44.1298 30.7023 44.2655 31.7192 44.7725C32.7362 45.2794 33.5441 46.1258 34.0032 47.1652C38.3616 46.3591 42.299 44.0492 45.1291 40.6381C47.9592 37.2269 49.5025 32.9308 49.4901 28.4985C49.4901 18.0272 40.9712 9.5083 30.4999 9.5083C20.0286 9.5083 11.5097 18.0272 11.5097 28.4985C11.5091 31.7364 12.3366 34.9207 13.9135 37.7486C13.967 37.8419 14.0071 37.9423 14.0327 38.0467C14.185 38.4701 14.1688 38.9358 13.9872 39.3475C13.8057 39.7592 13.4729 40.0853 13.0576 40.2584C12.0407 40.6864 10.9485 40.9068 9.84526 40.9066C9.71542 40.9066 9.5853 40.9036 9.45491 40.8976C7.24087 40.7986 5.15642 39.8257 3.65864 38.1921C2.16085 36.5586 1.37196 34.3978 1.46495 32.1835C1.50233 31.3005 1.48147 30.5126 1.46108 29.7508C1.4421 29.0335 1.42229 28.2917 1.45487 27.5177C1.5521 25.3556 2.48213 23.3151 4.05017 21.8234C5.61821 20.3317 7.70262 19.5046 9.86682 19.5153C13.3421 11.5639 21.2819 5.99268 30.4999 5.99268C39.7179 5.99268 47.6578 11.5639 51.1331 19.5154C53.2975 19.5031 55.3826 20.3295 56.9509 21.8212C58.5192 23.3129 59.4489 25.3541 59.5448 27.5164C59.5775 28.2916 59.5578 29.0333 59.5386 29.7506C59.5185 30.5125 59.4975 31.3007 59.5349 32.1843ZM45.2427 28.4985C45.2418 30.7571 44.7222 32.9854 43.724 35.0114C42.7257 37.0374 41.2755 38.8071 39.4851 40.184C37.6947 41.5609 35.612 42.5082 33.3976 42.9528C31.1832 43.3975 28.8962 43.3276 26.7131 42.7485L20.7458 46.1947C20.4447 46.3685 20.0988 46.4492 19.7519 46.4265C19.4049 46.4038 19.0725 46.2787 18.7967 46.067C18.5208 45.8554 18.3139 45.5667 18.2022 45.2374C18.0904 44.9082 18.0788 44.5532 18.1689 44.2174L19.6939 38.5281C17.1683 35.7982 15.763 32.2175 15.7577 28.4985C15.7577 20.3671 22.3707 13.7524 30.4999 13.7524C38.6291 13.7524 45.2427 20.3671 45.2427 28.4985ZM26.4013 28.4985C26.4013 28.0323 26.2161 27.5852 25.8864 27.2556C25.5568 26.9259 25.1097 26.7407 24.6435 26.7407H24.6405C24.293 26.7414 23.9535 26.845 23.6648 27.0386C23.3762 27.2321 23.1514 27.5069 23.0189 27.8281C22.8863 28.1494 22.852 28.5027 22.9202 28.8435C22.9884 29.1842 23.156 29.4971 23.402 29.7427C23.648 29.9882 23.9612 30.1552 24.3021 30.2228C24.643 30.2904 24.9963 30.2554 25.3173 30.1222C25.6383 29.9891 25.9126 29.7638 26.1056 29.4748C26.2986 29.1858 26.4016 28.8461 26.4016 28.4985H26.4013ZM32.2581 28.4985C32.2579 28.441 32.2548 28.3835 32.2487 28.3263C32.2432 28.2688 32.2346 28.2117 32.223 28.1552C32.2125 28.0989 32.1984 28.0433 32.1807 27.9888C32.1644 27.9337 32.1445 27.8798 32.1234 27.8259C32.1023 27.772 32.0766 27.7216 32.0496 27.6712C32.0228 27.6205 31.9935 27.5712 31.9617 27.5235C31.9297 27.4753 31.8952 27.4288 31.8585 27.3841C31.8223 27.3393 31.7837 27.2966 31.7426 27.2563C31.7027 27.2153 31.6594 27.1767 31.6148 27.1392C31.5702 27.104 31.5233 27.0688 31.4753 27.0372C31.4276 27.0054 31.3784 26.9761 31.3277 26.9493C31.2772 26.9224 31.2246 26.8978 31.1717 26.8755C31.119 26.8534 31.065 26.8342 31.0101 26.8181C30.9005 26.7829 30.7873 26.7601 30.6726 26.7501C30.5005 26.7335 30.3268 26.7418 30.157 26.7747C30.1005 26.7862 30.0446 26.8007 29.9896 26.8181C29.9346 26.8342 29.8806 26.8534 29.8278 26.8755C29.7751 26.8978 29.7224 26.9224 29.672 26.9493C29.6216 26.9763 29.5724 27.0056 29.5242 27.0372C29.476 27.0688 29.4293 27.104 29.386 27.1392C29.3403 27.1767 29.2982 27.2153 29.2571 27.2563C29.216 27.2967 29.1772 27.3393 29.141 27.3841C29.1047 27.4288 29.0707 27.4754 29.0392 27.5235C29.007 27.5712 28.9772 27.6205 28.9501 27.6712C28.9231 27.7214 28.8988 27.773 28.8773 27.8259C28.8551 27.8792 28.8355 27.9335 28.8187 27.9888C28.8025 28.0427 28.7884 28.0989 28.7767 28.1552C28.7651 28.2117 28.7564 28.2688 28.7508 28.3263C28.745 28.3837 28.7426 28.4411 28.7426 28.4985C28.7426 28.556 28.745 28.6146 28.7508 28.672C28.7565 28.729 28.7652 28.7857 28.7767 28.8419C28.7884 28.8981 28.8025 28.9544 28.8187 29.0095C28.8355 29.0643 28.8551 29.1183 28.8773 29.1712C28.8988 29.2244 28.9231 29.2764 28.9501 29.327C28.9769 29.3774 29.0075 29.4267 29.0392 29.4747C29.0707 29.5225 29.1047 29.5687 29.141 29.613C29.1775 29.6579 29.2163 29.7009 29.2571 29.7419C29.2982 29.7817 29.3403 29.8216 29.386 29.8579C29.4301 29.8945 29.4762 29.9285 29.5242 29.9599C29.5724 29.9915 29.6215 30.022 29.672 30.0489C29.7738 30.102 29.88 30.1459 29.9896 30.1802C30.0445 30.1966 30.1008 30.2106 30.157 30.2224C30.27 30.2455 30.3851 30.2569 30.5004 30.2563C30.966 30.2551 31.4124 30.0702 31.7426 29.7419C31.8236 29.6597 31.8969 29.5702 31.9617 29.4747C31.9933 29.4267 32.0226 29.3774 32.0496 29.327C32.0766 29.2767 32.1012 29.2239 32.1234 29.1712C32.1457 29.1185 32.1644 29.0634 32.1807 29.0095C32.1983 28.9545 32.2124 28.8986 32.223 28.8419C32.2345 28.7857 32.2431 28.729 32.2487 28.672C32.2547 28.6143 32.2577 28.5563 32.2577 28.4983L32.2581 28.4985ZM38.1174 28.4985C38.1174 28.0323 37.9323 27.5852 37.6026 27.2556C37.2729 26.9259 36.8258 26.7407 36.3596 26.7407H36.3562C36.0087 26.7414 35.6692 26.8451 35.3806 27.0386C35.092 27.2322 34.8672 27.5069 34.7347 27.8282C34.6021 28.1495 34.5678 28.5028 34.636 28.8435C34.7042 29.1843 34.8719 29.4972 35.1179 29.7427C35.3638 29.9882 35.6771 30.1553 36.018 30.2228C36.3588 30.2904 36.7121 30.2554 37.0331 30.1222C37.3541 29.9891 37.6284 29.7638 37.8214 29.4748C38.0144 29.1858 38.1174 28.8461 38.1174 28.4985Z" fill="white"/>
</svg>
