<svg width="56" height="56" viewBox="0 0 56 56" fill="none" xmlns="http://www.w3.org/2000/svg">
<g clip-path="url(#clip0_768_111495)">
<path fill-rule="evenodd" clip-rule="evenodd" d="M37.8711 41.4839V38.5723C37.8711 34.3275 36.0139 30.496 33.0717 27.8514C34.4794 26.5465 36.3617 25.7459 38.4322 25.7459C40.6087 25.7459 42.5808 26.6296 44.0037 28.0526C45.43 29.4789 46.3138 31.4509 46.3138 33.6242C46.3138 35.8007 45.43 37.7728 44.0037 39.1957C42.5808 40.622 40.6087 41.5057 38.4322 41.5057C38.2441 41.5057 38.0581 41.4992 37.8711 41.4839ZM55.4542 31.2835L53.0797 30.5114C52.8128 30.4249 52.6269 30.2259 52.5591 29.959C52.2145 28.6356 51.6906 27.3821 51.0147 26.2359C50.8725 25.9942 50.8627 25.7207 50.9895 25.4735L52.1248 23.2478C52.2834 22.9382 52.2277 22.5751 51.9794 22.3301L49.7317 20.0792C49.4867 19.8342 49.1236 19.7784 48.8141 19.937L46.5883 21.0712C46.34 21.1948 46.0677 21.1893 45.8259 21.046C44.6786 20.3701 43.4263 19.8462 42.1028 19.5017C41.8359 19.4339 41.638 19.2479 41.5505 18.981L40.7783 16.6065C40.67 16.2751 40.3758 16.0607 40.0247 16.0607H36.8463C36.4963 16.0607 36.2009 16.2751 36.0927 16.6065L35.3205 18.981C35.2341 19.2479 35.035 19.4339 34.7659 19.5017C33.4447 19.8462 32.1923 20.3701 31.045 21.046C30.8033 21.1882 30.5298 21.1948 30.2827 21.0712L28.0569 19.937C27.7473 19.7784 27.3842 19.8342 27.1392 20.0792L24.8883 22.3301C24.6433 22.5751 24.5875 22.9382 24.7461 23.2478L25.2634 24.265C27.6106 24.5625 29.7839 25.4309 31.6444 26.7204C33.3933 25.0032 35.7897 23.939 38.4344 23.939C41.1097 23.939 43.5312 25.024 45.2834 26.7762C47.0378 28.5306 48.1206 30.9521 48.1206 33.6253C48.1206 36.3006 47.0389 38.7221 45.2834 40.4743C43.5312 42.2287 41.1108 43.3115 38.4344 43.3115C38.2452 43.3115 38.0592 43.3082 37.8733 43.2962V49.2735C37.8733 49.9746 37.6775 50.632 37.3373 51.1931H40.0258C40.3758 51.1931 40.6711 50.9787 40.7794 50.6473L41.5516 48.2695C41.638 48.0059 41.837 47.82 42.1039 47.7489C43.4273 47.4076 44.6808 46.8837 45.827 46.2078C46.0687 46.0656 46.3422 46.0557 46.5894 46.1826L48.8152 47.3179C49.1247 47.4765 49.4878 47.4207 49.7328 47.1725L51.9805 44.9248C52.2287 44.6798 52.2845 44.3167 52.1259 44.0071L50.9906 41.7781C50.8638 41.5298 50.8725 41.2607 51.0158 41.019C51.6917 39.8717 52.2156 38.6193 52.5569 37.2959C52.628 37.029 52.8139 36.8278 53.0775 36.7435L55.4553 35.9714C55.7867 35.8631 56.0011 35.5689 56.0011 35.2178V32.0393C56 31.686 55.7856 31.3918 55.4542 31.2835ZM16.0322 37.7356L18.0316 41.2826L20.0309 37.7356L19.0389 25.957H17.0264L16.0322 37.7356ZM23.4456 25.957H20.8502L21.8542 37.8559H21.8509C21.863 38.0298 21.8291 38.2092 21.7361 38.371L18.8191 43.5456C18.7414 43.6856 18.6233 43.8092 18.4723 43.8923C18.0414 44.1373 17.4923 43.982 17.2473 43.551L14.3675 38.4443C14.2527 38.277 14.1903 38.0725 14.2089 37.8548L15.213 25.9559H12.6175C5.67766 25.957 0 31.6335 0 38.5723V49.2714C0 50.3257 0.865156 51.1909 1.92281 51.1909H7.91219V43.6353C7.91219 43.1365 8.31578 42.7329 8.81453 42.7329C9.31328 42.7329 9.71688 43.1365 9.71688 43.6353V51.1909H26.3473V43.6353C26.3473 43.1365 26.7498 42.7329 27.2497 42.7329C27.7484 42.7329 28.1553 43.1365 28.1553 43.6353V51.1909H34.1458C35.2002 51.1909 36.0653 50.3257 36.0653 49.2714V38.5723C36.0642 31.6335 30.3877 25.957 23.4456 25.957ZM18.0327 22.6243C22.937 22.6243 26.9402 18.6212 26.9402 13.7168C26.9402 8.80917 22.937 4.80933 18.0327 4.80933C13.1283 4.80933 9.12516 8.80917 9.12516 13.7168C9.12516 18.6212 13.1272 22.6243 18.0327 22.6243Z" fill="white"/>
</g>
<defs>
<clipPath id="clip0_768_111495">
<rect width="56" height="56" fill="white"/>
</clipPath>
</defs>
</svg>
