<svg width="49" height="48" viewBox="0 0 49 48" fill="none" xmlns="http://www.w3.org/2000/svg">
<g clip-path="url(#clip0_728_252274)">
<path d="M8.9375 17.0625C5.83522 17.0625 3.3125 14.5398 3.3125 11.4375C3.3125 8.33522 5.83522 5.8125 8.9375 5.8125C12.0398 5.8125 14.5625 8.33522 14.5625 11.4375C14.5625 14.5398 12.0398 17.0625 8.9375 17.0625Z" fill="white"/>
<path d="M40.0625 17.0625C36.9602 17.0625 34.4375 14.5398 34.4375 11.4375C34.4375 8.33522 36.9602 5.8125 40.0625 5.8125C43.1648 5.8125 45.6875 8.33522 45.6875 11.4375C45.6875 14.5398 43.1648 17.0625 40.0625 17.0625Z" fill="white"/>
<path d="M24.5 14.0625C20.6232 14.0625 17.4688 10.9081 17.4688 7.03125C17.4688 3.15441 20.6232 0 24.5 0C28.3768 0 31.5312 3.15441 31.5312 7.03125C31.5312 10.9081 28.3768 14.0625 24.5 14.0625Z" fill="white"/>
<path d="M25.9062 14.2046V23.9062C25.9062 24.6835 25.2773 25.3125 24.5 25.3125C23.7227 25.3125 23.0938 24.6835 23.0938 23.9062V14.2046C18.3359 14.8943 14.6562 18.9604 14.6562 23.9062V32.3437C14.6562 33.121 15.2852 33.75 16.0625 33.75H19.2129L20.2868 46.7118C20.3472 47.4396 20.9569 48 21.6875 48H27.3125C28.0431 48 28.6528 47.4396 28.7132 46.7118L29.7871 33.75H32.9375C33.7148 33.75 34.3438 33.121 34.3438 32.3437V23.9062C34.3438 18.9604 30.6641 14.8943 25.9062 14.2046Z" fill="white"/>
<path d="M11.75 32.5312V24.0938C11.75 21.9859 12.3172 20.0271 13.2323 18.2773C11.9696 17.5236 10.5119 17.0625 8.9375 17.0625C4.28478 17.0625 0.5 20.8473 0.5 25.5V32.5312C0.5 33.3085 1.12897 33.9375 1.90625 33.9375H3.44572L4.72559 46.7338C4.79703 47.452 5.40266 48 6.125 48H11.75C12.4723 48 13.078 47.452 13.1494 46.7338L14.1888 36.3423C12.753 35.6685 11.75 34.2194 11.75 32.5312Z" fill="white"/>
<path d="M48.4998 25.5C48.4998 20.8473 44.7151 17.0625 40.0623 17.0625C38.4879 17.0625 37.0303 17.5236 35.7676 18.2773C36.6827 20.0271 37.2498 21.9859 37.2498 24.0938V32.5312C37.2498 34.2194 36.2468 35.6685 34.811 36.3423L35.8504 46.7338C35.9219 47.452 36.5275 48 37.2498 48H42.8748C43.5972 48 44.2028 47.452 44.2743 46.7338L45.5541 33.9375H47.0936C47.8709 33.9375 48.4998 33.3085 48.4998 32.5312V25.5Z" fill="white"/>
</g>
<defs>
<clipPath id="clip0_728_252274">
<rect width="48" height="48" fill="white" transform="translate(0.5)"/>
</clipPath>
</defs>
</svg>
