<svg width="48" height="49" viewBox="0 0 48 49" fill="none" xmlns="http://www.w3.org/2000/svg">
<path d="M33.0073 36.3709C33.6328 37.3984 33.8203 38.6059 33.5353 39.7744C33.2518 40.9414 32.5288 41.9299 31.5013 42.5554L27.7753 44.8234C27.0598 45.2584 26.2573 45.4774 25.4488 45.4774C24.7228 45.4774 23.9908 45.3019 23.3113 44.9479C15.4873 40.8904 11.0203 34.8649 9.05379 31.6354C4.69628 24.4774 3.78129 17.4244 3.77979 12.7699C3.77979 11.2009 4.58679 9.7699 5.93979 8.9449L9.66729 6.6769C10.6933 6.0514 11.9008 5.8639 13.0708 6.1489C14.2378 6.4324 15.2263 7.1539 15.8503 8.1814L18.1903 12.0244C19.4803 14.1454 18.8053 16.9189 16.6858 18.2089L14.7553 19.3834C14.1763 19.7359 13.8943 20.4439 14.0878 21.0649C14.7253 23.1274 15.6193 25.1089 16.7428 26.9554C17.8633 28.7959 19.2118 30.4969 20.7478 32.0119C21.2233 32.4799 21.9658 32.5564 22.5553 32.1979L24.4843 31.0234C26.6008 29.7304 29.3773 30.4069 30.6688 32.5264L33.0088 36.3709H33.0073ZM24.1333 18.3409C27.4033 18.8449 29.6518 21.9169 29.1478 25.1854C29.0218 26.0044 29.5828 26.7709 30.4018 26.8969C30.4798 26.9089 30.5563 26.9149 30.6328 26.9149C31.3603 26.9149 31.9993 26.3839 32.1133 25.6429C32.8693 20.7379 29.4958 16.1329 24.5923 15.3754C23.7748 15.2524 23.0068 15.8104 22.8808 16.6279C22.7548 17.4469 23.3158 18.2134 24.1333 18.3394V18.3409ZM25.5058 9.4459C24.6943 9.3199 23.9203 9.8809 23.7943 10.6999C23.6683 11.5174 24.2293 12.2839 25.0483 12.4114C28.2163 12.9004 31.0033 14.5939 32.8978 17.1799C34.7923 19.7659 35.5663 22.9339 35.0773 26.1019C34.9513 26.9194 35.5123 27.6859 36.3313 27.8134C36.4078 27.8254 36.4858 27.8314 36.5623 27.8314C37.2898 27.8314 37.9288 27.3004 38.0428 26.5594C38.6548 22.5994 37.6873 18.6394 35.3188 15.4069C32.9503 12.1744 29.4658 10.0579 25.5058 9.4459ZM26.4208 3.5164C25.6048 3.3949 24.8353 3.9514 24.7093 4.7704C24.5833 5.5879 25.1443 6.3544 25.9633 6.4819C35.7718 7.9954 42.5203 17.2069 41.0068 27.0169C40.8808 27.8344 41.4418 28.6009 42.2608 28.7284C42.3373 28.7404 42.4153 28.7464 42.4918 28.7464C43.2193 28.7464 43.8583 28.2154 43.9723 27.4744C45.7393 16.0309 37.8658 5.2849 26.4208 3.5179V3.5164Z" fill="white"/>
</svg>
