<svg width="50" height="51" viewBox="0 0 50 51" fill="none" xmlns="http://www.w3.org/2000/svg">
<path d="M45.3125 36.4375H12.5C9.91516 36.4375 7.8125 34.3348 7.8125 31.75V9.875C7.8125 8.15152 6.41098 6.75 4.6875 6.75C3.82462 6.75 3.125 6.05038 3.125 5.1875C3.125 4.32462 3.82462 3.625 4.6875 3.625C8.1337 3.625 10.9375 6.4288 10.9375 9.875V31.75C10.9375 32.6114 11.6386 33.3125 12.5 33.3125H45.3125C46.1754 33.3125 46.875 34.0121 46.875 34.875C46.875 35.7379 46.1754 36.4375 45.3125 36.4375Z" fill="white"/>
<path d="M17.1875 47.375C19.7763 47.375 21.875 45.2763 21.875 42.6875C21.875 40.0987 19.7763 38 17.1875 38C14.5987 38 12.5 40.0987 12.5 42.6875C12.5 45.2763 14.5987 47.375 17.1875 47.375Z" fill="white"/>
<path d="M40.625 47.375C43.2138 47.375 45.3125 45.2763 45.3125 42.6875C45.3125 40.0987 43.2138 38 40.625 38C38.0362 38 35.9375 40.0987 35.9375 42.6875C35.9375 45.2763 38.0362 47.375 40.625 47.375Z" fill="white"/>
<path d="M28.6133 13.1709L31.25 15.2804V8.3125H25V15.2804L27.6367 13.1709C27.9236 12.9435 28.3264 12.9435 28.6133 13.1709Z" fill="white"/>
<path d="M32.8125 8.3125V16.9062C32.8125 17.2068 32.6401 17.48 32.37 17.6104C32.2617 17.6623 32.1457 17.6875 32.0312 17.6875C31.8573 17.6875 31.6849 17.6295 31.543 17.5166L28.125 14.7815L24.707 17.5166C24.4705 17.7043 24.1516 17.7401 23.88 17.6104C23.6099 17.48 23.4375 17.2068 23.4375 16.9062V8.3125H17.1875C15.4616 8.3125 14.0625 9.71161 14.0625 11.4375V28.625C14.0625 30.3509 15.4616 31.75 17.1875 31.75H39.0625C40.7884 31.75 42.1875 30.3509 42.1875 28.625V11.4375C42.1875 9.71161 40.7884 8.3125 39.0625 8.3125H32.8125Z" fill="white"/>
</svg>
