<svg width="48" height="48" viewBox="0 0 48 48" fill="none" xmlns="http://www.w3.org/2000/svg">
<path d="M38.5 16L43.6 9.2C43.8223 8.90272 43.9576 8.54947 43.9906 8.17974C44.0237 7.81001 43.9533 7.43836 43.7873 7.10634C43.6213 6.77433 43.3662 6.49502 43.0506 6.29964C42.735 6.10426 42.3712 6.00052 42 6H18C18 5.46957 17.7893 4.96086 17.4142 4.58579C17.0391 4.21071 16.5304 4 16 4C15.4696 4 14.9609 4.21071 14.5858 4.58579C14.2107 4.96086 14 5.46957 14 6V40H12C11.4696 40 10.9609 40.2107 10.5858 40.5858C10.2107 40.9609 10 41.4696 10 42C10 42.5304 10.2107 43.0391 10.5858 43.4142C10.9609 43.7893 11.4696 44 12 44H20C20.5304 44 21.0391 43.7893 21.4142 43.4142C21.7893 43.0391 22 42.5304 22 42C22 41.4696 21.7893 40.9609 21.4142 40.5858C21.0391 40.2107 20.5304 40 20 40H18V26H42C42.3712 25.9995 42.735 25.8957 43.0506 25.7004C43.3662 25.505 43.6213 25.2257 43.7873 24.8937C43.9533 24.5616 44.0237 24.19 43.9906 23.8203C43.9576 23.4505 43.8223 23.0973 43.6 22.8L38.5 16Z" fill="white"/>
</svg>
