<svg width="54" height="54" viewBox="0 0 54 54" fill="none" xmlns="http://www.w3.org/2000/svg">
<g clip-path="url(#clip0_728_252676)">
<path d="M28.3398 26.845V38.6742L38.5843 32.7597V20.9304L28.3398 26.845Z" fill="white"/>
<path d="M16.5425 18.2408L26.7869 24.1555L37.0313 18.2408L26.7869 12.3262L16.5425 18.2408Z" fill="white"/>
<path d="M25.2342 26.845L14.9897 20.9304V32.7597L25.2342 38.6742V26.845Z" fill="white"/>
<path d="M47.0476 9.69177C45.9311 9.69177 44.9082 10.0983 44.1172 10.77L26.8387 0.794189L9.4979 10.8059C8.70145 10.1129 7.66236 9.69177 6.52617 9.69177C4.02606 9.69177 1.99219 11.7256 1.99219 14.2258C1.99219 16.2181 3.28458 17.9133 5.07468 18.52V38.4904L22.2398 48.4007C22.1862 48.6792 22.1571 48.9662 22.1571 49.2601C22.1571 51.7601 24.191 53.794 26.6911 53.794C29.1911 53.794 31.225 51.7601 31.225 49.2601C31.225 49.0204 31.206 48.785 31.1699 48.5552L48.6027 38.4903V18.4849C50.3391 17.8489 51.5816 16.1797 51.5816 14.2258C51.5816 11.7257 49.5476 9.69177 47.0476 9.69177ZM45.4925 36.6949L29.6584 45.8366C28.8625 45.1459 27.8251 44.7263 26.691 44.7263C25.6132 44.7263 24.6226 45.105 23.8436 45.7354L8.18501 36.6949V18.444C9.86662 17.7804 11.0601 16.1404 11.0601 14.2258C11.0601 13.988 11.0414 13.7546 11.006 13.5266L26.8387 4.38556L42.5774 13.4723C42.5362 13.7175 42.5136 13.9689 42.5136 14.2258C42.5136 16.1797 43.7561 17.8489 45.4925 18.4849V36.6949Z" fill="white"/>
</g>
<defs>
<clipPath id="clip0_728_252676">
<rect width="53" height="53" fill="white" transform="translate(0.287109 0.794189)"/>
</clipPath>
</defs>
</svg>
