<svg width="40" height="40" viewBox="0 0 40 40" fill="none" xmlns="http://www.w3.org/2000/svg">
<path d="M18.7502 5.41675V24.5834H10.0002C7.90053 24.5834 5.8869 23.7493 4.40223 22.2647C2.91757 20.78 2.0835 18.7664 2.0835 16.6667V13.3334C2.0835 11.2338 2.91757 9.22015 4.40223 7.73549C5.8869 6.25082 7.90053 5.41675 10.0002 5.41675H18.7502Z" fill="white"/>
<path d="M36.7035 1.61174C36.3285 1.34199 35.8949 1.1652 35.4382 1.09594C34.9815 1.02668 34.5149 1.06695 34.0768 1.21341L20.4102 5.76507V24.2351L34.0768 28.7867C34.3738 28.8867 34.6851 28.9374 34.9985 28.9367C35.3816 28.9372 35.761 28.8621 36.115 28.7158C36.4691 28.5695 36.7908 28.3549 37.0619 28.0841C37.3329 27.8134 37.5479 27.4919 37.6946 27.138C37.8413 26.7842 37.9168 26.4048 37.9168 26.0217V3.97841C37.9165 3.51601 37.8064 3.0603 37.5954 2.64882C37.3845 2.23735 37.0788 1.88189 36.7035 1.61174Z" fill="white"/>
<path d="M20.6669 35.8835C20.0552 36.6654 19.236 37.2598 18.3029 37.5988C17.3698 37.9379 16.3602 38.0081 15.3892 37.8014C14.4181 37.5947 13.5247 37.1194 12.8106 36.4296C12.0965 35.7399 11.5905 34.8634 11.3503 33.9001L9.43359 26.2168C9.62114 26.2445 9.81076 26.2557 10.0003 26.2501H20.3503L21.6169 31.3335C21.8148 32.1142 21.8321 32.9298 21.6675 33.7182C21.5029 34.5066 21.1607 35.2471 20.6669 35.8835Z" fill="white"/>
</svg>
