<?xml version="1.0" encoding="utf-8"?><svg xmlns="http://www.w3.org/2000/svg" xmlns:xlink="http://www.w3.org/1999/xlink"><symbol viewBox="0 0 48 48" id="all" xmlns="http://www.w3.org/2000/svg"><path d="M43.5 48h-39c-1.249 0-2.311-.438-3.187-1.313C.438 45.81 0 44.749 0 43.5v-39c0-1.249.438-2.311 1.313-3.187C2.19.438 3.251 0 4.5 0h39c1.249 0 2.311.438 3.187 1.313C47.562 2.19 48 3.251 48 4.5v39c0 1.249-.438 2.311-1.313 3.187C45.81 47.562 44.749 48 43.5 48Zm0-45h-39a1.44 1.44 0 0 0-1.053.447A1.44 1.44 0 0 0 3 4.5v39c0 .404.149.756.447 1.053A1.44 1.44 0 0 0 4.5 45h39a1.44 1.44 0 0 0 1.053-.447A1.44 1.44 0 0 0 45 43.5v-39a1.44 1.44 0 0 0-.447-1.053A1.44 1.44 0 0 0 43.5 3Zm3 22.5h-45a1.44 1.44 0 0 1-1.053-.447A1.44 1.44 0 0 1 0 24c0-.404.149-.756.447-1.053A1.44 1.44 0 0 1 1.5 22.5h45c.404 0 .756.149 1.053.447.298.297.447.649.447 1.053 0 .404-.149.756-.447 1.053a1.44 1.44 0 0 1-1.053.447ZM24 48a1.44 1.44 0 0 1-1.053-.447A1.44 1.44 0 0 1 22.5 46.5v-45c0-.404.149-.756.447-1.053A1.44 1.44 0 0 1 24 0c.404 0 .756.149 1.053.447.298.297.447.649.447 1.053v45c0 .404-.149.756-.447 1.053A1.44 1.44 0 0 1 24 48Z"/></symbol><symbol viewBox="0 0 20 20" id="close" xmlns="http://www.w3.org/2000/svg"><path d="M19.867 19.073a.556.556 0 0 0-.06-.06l-9.023-9.028L19.812.962a.556.556 0 1 0-.787-.787l-9.022 9.029L.98.175a.556.556 0 1 0-.786.787l9.028 9.023-9.028 9.022a.554.554 0 1 0 .78.781l9.029-9.022 9.022 9.028a.554.554 0 0 0 .842-.72Z"/></symbol><symbol viewBox="0 0 16 17" id="date" xmlns="http://www.w3.org/2000/svg"><g clip-path="url(#ca)"><path d="M2.418 16.82h11.164c1.17 0 2.122-.951 2.122-2.122V4.126c0-1.17-.951-2.121-2.122-2.121h-.841v-.593a.594.594 0 0 0-.593-.592.594.594 0 0 0-.592.592v.593H4.445v-.593A.594.594 0 0 0 3.852.82a.594.594 0 0 0-.593.592v.593h-.841c-1.17 0-2.122.951-2.122 2.121v10.572c0 1.17.952 2.122 2.122 2.122ZM1.482 4.126c0-.515.42-.936.936-.936h.841v.593c0 .326.267.592.593.592a.594.594 0 0 0 .593-.592V3.19h7.11v.593c0 .326.267.592.593.592a.594.594 0 0 0 .593-.592V3.19h.841c.516 0 .936.42.936.936v1.73H1.482v-1.73Zm0 2.916h13.037v7.656c0 .516-.421.937-.937.937H2.418a.938.938 0 0 1-.936-.937V7.042Z"/></g><defs><clipPath id="ca"><path transform="translate(0 .82)" d="M0 0h16v16H0z"/></clipPath></defs></symbol><symbol viewBox="0 0 21 20" id="search" xmlns="http://www.w3.org/2000/svg"><path d="M8.925 0C4.069 0 .117 3.951.117 8.808c0 4.856 3.952 8.807 8.808 8.807 4.857 0 8.808-3.95 8.808-8.807S13.782 0 8.925 0Zm0 15.99c-3.96 0-7.182-3.223-7.182-7.182 0-3.96 3.222-7.182 7.182-7.182 3.96 0 7.182 3.222 7.182 7.182 0 3.96-3.222 7.181-7.182 7.181Z"/><path d="m19.88 18.612-4.662-4.661a.813.813 0 1 0-1.15 1.15l4.662 4.66a.81.81 0 0 0 1.15 0 .813.813 0 0 0 0-1.15Z"/></symbol></svg>